<svg id="niolabs-logo" data-name="Layer 1" xmlns="http://www.w3.org/2000/svg" viewBox="0 0 1144 257">
  <defs>
    <style>.cls-1{fill:#e6e9ee;}.cls-2{fill:#fff;}
    </style>
  </defs>
  <title>niolabs_logo_light</title>
  <path class="cls-1" d="M536,5.56V247.36H494.15V5.56Z"/>
  <path class="cls-1" d="M708.28,76.82h40.47V247.36H709l-2.08-24.91c-9.69,20.06-36.32,29.75-55.35,30.1-50.51.35-87.87-30.79-87.87-90.63,0-58.81,39.09-89.6,88.91-89.25,22.83,0,44.62,10.72,54.31,27.68Zm-102.4,85.1c0,32.52,22.49,51.89,50.51,51.89,66.42,0,66.42-103.43,0-103.43C628.37,110.37,605.89,129.4,605.89,161.92Z"/>
  <path class="cls-1" d="M823.13,5.56V100c10-17.64,38.05-27.33,56-27.33C929,72.67,966,103.11,966,161.92c0,56-37.71,89.25-87.87,89.25-20.76,0-41.86-6.92-55-27.33l-2.77,23.52H780.92V5.56Zm2.77,156.36c0,30.79,22.83,50.16,49.47,50.16,27,0,48.43-20.41,48.43-50.16,0-30.79-21.45-49.81-48.43-49.81C848.73,112.1,825.9,132.17,825.9,161.92Z"/>
  <path class="cls-1" d="M1108.52,122.14c-12.11-11.41-25.95-15.22-42.2-15.22-20.06,0-31.13,6.23-31.13,16.95,0,11.07,10,17.3,31.83,18.68,32.17,2.08,73,9.34,73,54.66,0,30.1-24.56,56-73.34,56-27,0-54-4.5-78.87-30.44l20.76-30.1c12.11,13.49,39.78,23.52,58.81,23.87,15.91.35,30.79-8,30.79-20.41,0-11.76-9.69-16.61-33.9-18-32.17-2.42-70.57-14.18-70.57-52.93,0-39.44,40.82-53.27,72-53.27,26.64,0,46.7,5.19,66.42,22.49Z"/>
  <path class="cls-2" d="M130.57,247.86V158.25c0-26-14.24-45.84-41.33-45.84-26.05,0-43.76,21.88-43.76,47.93v87.52h-42V76.29H41.31l2.78,23.27c17.37-17,34.73-25.71,56.26-25.71,40.29,0,72.59,30.22,72.59,84.05v90Z"/>
  <path class="cls-2" d="M254.33,28.35c0,33-50,33-50,0S254.33-4.64,254.33,28.35ZM208.14,75.94V247.86h42.37V75.94Z"/>
  <path class="cls-2" d="M462.72,162.42c0,49.32-33.69,89.26-89.26,89.26s-88.91-39.94-88.91-89.26c0-49,34-89.26,88.57-89.26S462.72,113.45,462.72,162.42Zm-135.8,0c0,26.05,15.63,50.36,46.54,50.36S420,188.47,420,162.42c0-25.7-18.06-50.7-46.54-50.7C342.9,111.71,326.92,136.72,326.92,162.42Z"/>
</svg>
